<?xml version="1.0" encoding="UTF-8"?>
<svg id="SVGDoc" width="35" height="35" xmlns="http://www.w3.org/2000/svg" version="1.1" xmlns:xlink="http://www.w3.org/1999/xlink" xmlns:avocode="https://avocode.com/" viewBox="0 0 35 35"><defs></defs><desc>Generated with Avocode.</desc><g><g><title>Group 65</title><g><title>Path 74</title><path d="M22.40121,12.25824h-1.60175c-1.28131,0 -1.4949,0.6405 -1.4949,1.4946v1.92213h2.98981l-0.42719,2.98953h-2.56262v7.79471h-3.09634v-7.79471h-2.66943v-2.98953h2.66943v-2.24222c-0.10678,-2.66945 1.4949,-4.05756 3.84393,-4.05756c1.06772,0 2.02863,0.1068 2.34906,0.1068zM17.91672,0.83319c-9.39639,0 -17.08398,7.6879 -17.08398,17.08401c0,9.3961 7.68759,17.08401 17.08398,17.08401c9.39612,0 17.08371,-7.68791 17.08371,-17.08401c0,-9.39612 -7.68759,-17.08401 -17.08371,-17.08401z" fill="#1d1616" fill-opacity="1"></path></g></g></g></svg>