<?xml version="1.0" encoding="UTF-8"?>
<svg id="SVGDoc" width="35" height="35" xmlns="http://www.w3.org/2000/svg" version="1.1" xmlns:xlink="http://www.w3.org/1999/xlink" xmlns:avocode="https://avocode.com/" viewBox="0 0 35 35"><defs></defs><desc>Generated with Avocode.</desc><g><g><title>Group 58</title><g><title>Group 56</title><g><title>Path 67</title><path d="M17.24417,0.66504c-9.44231,0 -17.168,7.72568 -17.168,17.16797c0,9.44229 7.72569,17.168 17.168,17.168c9.44232,0 17.168,-7.72571 17.168,-17.168c0,-9.44229 -7.72568,-17.16797 -17.168,-17.16797z" fill="#1d1616" fill-opacity="1"></path></g></g><g><title>Group 57</title><g><title>Path 68</title><path d="M19.69557,21.65323c-0.72141,0.82129 -1.69232,1.36914 -2.83716,1.36914c-1.51813,0 -2.26477,-1.0705 -2.26477,-2.1904c0,-1.24439 0.92084,-2.53885 2.71274,-2.53885c0.94571,0 1.86658,0.29895 2.38919,0.79672zM17.38106,26.83012c-5.10193,-0.27377 -8.18799,-4.03207 -8.18799,-8.91c0,-5.69925 4.28064,-8.38739 8.41196,-8.38739c5.79911,0 7.74033,3.65844 7.74033,7.1181c0,3.11096 -1.56824,6.04797 -3.33524,6.04797c-0.54721,0 -0.72174,-0.37362 -0.72174,-1.39401v-5.82397c0,-2.66263 -1.86655,-3.23538 -3.65845,-3.23538c-2.14035,0 -4.0069,1.34394 -4.35532,3.58411h1.26926c0.07467,-2.14032 1.54303,-3.13611 2.88696,-3.13611c1.66745,0 2.26474,0.89594 2.26474,2.46384v3.48456c-0.74661,-0.52261 -1.86654,-0.82126 -2.88693,-0.82126c-2.46387,0 -4.00687,1.41858 -4.00687,3.16071c0,1.41888 1.07013,2.73761 3.18558,2.73761c1.41858,0 2.73761,-0.62219 3.70822,-1.5679c0,0.89624 0.49774,1.5679 1.39371,1.5679c3.11123,0 5.22668,-3.45935 5.22668,-7.06805c0,-3.90732 -2.46384,-7.96396 -8.81049,-7.96396c-4.62906,0 -9.3331,2.96127 -9.3331,9.30789c0,5.376 3.5592,8.98437 9.20868,8.98437z" fill="#ffffff" fill-opacity="1"></path></g></g></g></g></svg>