<?xml version="1.0" encoding="UTF-8"?>
<svg id="SVGDoc" width="35" height="35" xmlns="http://www.w3.org/2000/svg" version="1.1" xmlns:xlink="http://www.w3.org/1999/xlink" xmlns:avocode="https://avocode.com/" viewBox="0 0 35 35"><defs></defs><desc>Generated with Avocode.</desc><g><g><title>Path 69</title><path d="M24.03528,14.29196v0.42932c0,4.61386 -3.54089,9.97903 -9.97873,9.97903c-2.03894,0 -3.86288,-0.53665 -5.36517,-1.60962h0.85831c1.60962,0 3.21924,-0.53665 4.39954,-1.50229c-1.50229,0 -2.78992,-1.07297 -3.32654,-2.46793c0.21466,0 0.42932,0.10733 0.64398,0.10733c0.32196,0 0.64362,0 0.96564,-0.10733c-1.60962,-0.32166 -2.78992,-1.71661 -2.78992,-3.43356c0.42929,0.21466 0.96594,0.42932 1.60962,0.42932c-0.96567,-0.64398 -1.60962,-1.71695 -1.60962,-2.89725c0,-0.64365 0.21466,-1.28763 0.42929,-1.82394c1.71695,2.14594 4.2919,3.54089 7.29645,3.64822c-0.10733,-0.21466 -0.10733,-0.53665 -0.10733,-0.75131c0,-1.93127 1.60962,-3.54086 3.54089,-3.54086c0.96564,0 1.93127,0.42929 2.57526,1.07294c0.75098,-0.1073 1.60962,-0.42899 2.25327,-0.85828c-0.21463,0.85828 -0.85831,1.50226 -1.50229,1.93158c0.75131,-0.10733 1.39496,-0.32199 2.03894,-0.53665c-0.64398,0.85831 -1.28763,1.50229 -1.93158,1.93127zM17.16812,0.66504c-9.44238,0 -17.16812,7.72543 -17.16812,17.16782c0,9.44269 7.72574,17.16812 17.16812,17.16812c9.44241,0 17.16815,-7.72543 17.16815,-17.16812c0,-9.44238 -7.72574,-17.16782 -17.16815,-17.16782z" fill="#1d1616" fill-opacity="1"></path></g></g></svg>